<?xml version="1.0" encoding="UTF-8"?>
<svg xmlns="http://www.w3.org/2000/svg" xmlns:xlink="http://www.w3.org/1999/xlink" width="10pt" height="10pt" viewBox="0 0 10 10" version="1.1">
<g id="surface1">
<path style=" stroke:none;fill-rule:nonzero;fill:rgb(0%,0%,0%);fill-opacity:1;" d="M 9.679688 3.675781 C 9.753906 3.617188 9.867188 3.675781 9.867188 3.765625 L 9.867188 7.710938 C 9.867188 8.222656 9.453125 8.636719 8.941406 8.636719 L 0.925781 8.636719 C 0.414062 8.636719 0 8.222656 0 7.710938 L 0 3.769531 C 0 3.675781 0.109375 3.617188 0.1875 3.679688 C 0.621094 4.015625 1.191406 4.441406 3.15625 5.871094 C 3.566406 6.164062 4.25 6.789062 4.933594 6.785156 C 5.621094 6.792969 6.320312 6.15625 6.710938 5.871094 C 8.679688 4.441406 9.25 4.015625 9.679688 3.675781 Z M 4.933594 6.167969 C 5.382812 6.175781 6.023438 5.605469 6.347656 5.371094 C 8.90625 3.511719 9.101562 3.351562 9.691406 2.886719 C 9.800781 2.804688 9.867188 2.667969 9.867188 2.527344 L 9.867188 2.160156 C 9.867188 1.648438 9.453125 1.234375 8.941406 1.234375 L 0.925781 1.234375 C 0.414062 1.234375 0 1.648438 0 2.160156 L 0 2.523438 C 0 2.667969 0.0664062 2.800781 0.175781 2.886719 C 0.765625 3.351562 0.960938 3.511719 3.519531 5.371094 C 3.84375 5.605469 4.488281 6.175781 4.933594 6.167969 Z M 4.933594 6.167969 "/>
</g>
</svg>
