<?xml version="1.0" encoding="UTF-8"?>
<svg xmlns="http://www.w3.org/2000/svg" xmlns:xlink="http://www.w3.org/1999/xlink" width="10pt" height="10pt" viewBox="0 0 10 10" version="1.1">
<g id="surface1">
<path style=" stroke:none;fill-rule:nonzero;fill:rgb(0%,0%,0%);fill-opacity:1;" d="M 9.585938 6.976562 L 7.425781 6.050781 C 7.238281 5.96875 7.019531 6.019531 6.886719 6.179688 L 5.929688 7.351562 C 4.433594 6.640625 3.226562 5.433594 2.519531 3.933594 L 3.683594 2.980469 C 3.84375 2.847656 3.898438 2.628906 3.820312 2.4375 L 2.894531 0.28125 C 2.804688 0.0742188 2.582031 -0.0390625 2.363281 0.0117188 L 0.355469 0.476562 C 0.148438 0.523438 0 0.710938 0 0.925781 C 0 5.871094 4.007812 9.867188 8.941406 9.867188 C 9.160156 9.867188 9.347656 9.71875 9.394531 9.507812 L 9.859375 7.503906 C 9.90625 7.285156 9.792969 7.0625 9.585938 6.972656 Z M 9.585938 6.976562 "/>
</g>
</svg>
