<?xml version="1.0" encoding="UTF-8"?>
<svg xmlns="http://www.w3.org/2000/svg" xmlns:xlink="http://www.w3.org/1999/xlink" width="10pt" height="13pt" viewBox="0 0 10 13" version="1.1">
<g id="surface1">
<path style=" stroke:none;fill-rule:nonzero;fill:rgb(0%,0%,0%);fill-opacity:1;" d="M 4.429688 12.738281 C 0.695312 7.390625 0 6.839844 0 4.875 C 0 2.183594 2.210938 0 4.933594 0 C 7.660156 0 9.867188 2.183594 9.867188 4.875 C 9.867188 6.839844 9.175781 7.390625 5.441406 12.738281 C 5.195312 13.085938 4.671875 13.085938 4.429688 12.738281 Z M 4.933594 6.90625 C 6.070312 6.90625 6.988281 5.996094 6.988281 4.875 C 6.988281 3.753906 6.070312 2.84375 4.933594 2.84375 C 3.796875 2.84375 2.878906 3.753906 2.878906 4.875 C 2.878906 5.996094 3.796875 6.90625 4.933594 6.90625 Z M 4.933594 6.90625 "/>
</g>
</svg>
